HIERARCHY
ROOT Hips
{
	OFFSET	0.00	0.00	0.00
	CHANNELS 6 Xposition Yposition Zposition Zrotation Xrotation Yrotation
	JOINT Spine
	{
		OFFSET	 0.00	0.01	 0.00
		CHANNELS 3 Zrotation Xrotation Yrotation
		JOINT Spine1
		{
			OFFSET	 0.00	 2.45913012437421	 0.00
			CHANNELS 3 Zrotation Xrotation Yrotation
            JOINT Neck
            {
                OFFSET	 0.00	 2.48462964506057	 0.00
                CHANNELS 3 Zrotation Xrotation Yrotation
                JOINT Head
                {
                    OFFSET	 0.00	 0.927524780924562	 0.00
                    CHANNELS 3 Zrotation Xrotation Yrotation
                    End Site 
                    {
                        OFFSET	 0.00	 1.14999962169752	 0.00
                    }
                }
            }
			JOINT LeftShoulder
			{
				OFFSET	 0.00	 2.48462964506057	 0.00
				CHANNELS 3 Zrotation Xrotation Yrotation
				JOINT LeftUpArm
				{
					OFFSET	 0.00	 1.24881979654096	 0.00
					CHANNELS 3 Zrotation Xrotation Yrotation
					JOINT LeftForeArm
					{
						OFFSET	 0.00	2.59758046908119	 0.00
						CHANNELS 3 Zrotation Xrotation Yrotation
						JOINT LeftHand
						{
							OFFSET	 0.00	2.45542024364365	 0.00
							CHANNELS 3 Zrotation Xrotation Yrotation
							JOINT LeftHandThumb 
							{
								OFFSET	 0.00	0.00	 0.00
								CHANNELS 3 Zrotation Xrotation Yrotation
								End Site
								{
									OFFSET	 0.00	0.00	1.00000003353624
								}
							}
							JOINT L_Wrist_End 
							{
								OFFSET	 0.00	0.99999967115358	 0.00
								CHANNELS 3 Zrotation Xrotation Yrotation
								End Site 
								{
									OFFSET	 0.00	 0.00	 0.00
								}
							}
						}
					}
				}
			}
			JOINT RightShoulder
			{
				OFFSET	 0.00	 2.48462964506057	 0.00
				CHANNELS 3 Zrotation Xrotation Yrotation
				JOINT RightUpArm
				{
					OFFSET	 0.00	 1.24881979654096	 0.00
					CHANNELS 3 Zrotation Xrotation Yrotation
					JOINT RightForeArm
					{
						OFFSET	 0.00	2.59758046908119	 0.00
						CHANNELS 3 Zrotation Xrotation Yrotation
						JOINT RightHand
						{
							OFFSET	 0.00	2.45542024364365	 0.00
							CHANNELS 3 Zrotation Xrotation Yrotation
							JOINT RightHandThumb 
							{
								OFFSET	 0.00	0.00	 0.00
								CHANNELS 3 Zrotation Xrotation Yrotation
								End Site
								{
									OFFSET	 0.00	0.00	1.00000003353624
								}
							}
							JOINT R_Wrist_End 
							{
								OFFSET	 0.00	0.99999967115358	 0.00
								CHANNELS 3 Zrotation Xrotation Yrotation
								End Site 
								{
									OFFSET	 0.00	 0.00	 0.00
								}
							}
						}
					}
				}
			}
		}
	}
	JOINT LeftUpLeg
	{
		OFFSET	 1.2719394002717	 0.00	 0.00
		CHANNELS 3 Zrotation Xrotation Yrotation
		JOINT LeftLowLeg
		{
			OFFSET	 0.00	-4.3429100912261	 0.00
			CHANNELS 3 Zrotation Xrotation Yrotation
			JOINT LeftFoot
			{
				OFFSET	 0.00	-4.48767017425826	 0.00
				CHANNELS 3 Zrotation Xrotation Yrotation
				JOINT LeftToeBase
                {
                    OFFSET	 0.00	0.00	 1.51507020887566
                    CHANNELS 3 Zrotation Xrotation Yrotation
                    End Site 
                    {
                        OFFSET	 0.00	0.00	 0.75000010571191
                    }
                }
			}
		}
	}
	JOINT RightUpLeg
	{
		OFFSET	 -1.2719393604653	 0.00	 0.00
		CHANNELS 3 Zrotation Xrotation Yrotation
		JOINT RightLowLeg
		{
			OFFSET	 0.00	-4.3429100912261	 0.00
			CHANNELS 3 Zrotation Xrotation Yrotation
			JOINT RightFoot
			{
				OFFSET	 0.00	-4.48767017425826	 0.00
				CHANNELS 3 Zrotation Xrotation Yrotation
				JOINT RightToeBase
                {
                    OFFSET	 0.00	0.00	 1.51507020887566
                    CHANNELS 3 Zrotation Xrotation Yrotation
                    End Site 
                    {
                        OFFSET	 0.00	0.00	 0.749999965609858
                    }
                }   
			}
		}
	}
}
MOTION 
Frames:	15 
Frame Time: 0.02 
  1.6456300354003905 3.906820068359375 9.752630004882812 -150.324 81.0481 148.768 2.69253 -9.65979 -1.60945 12.5171 22.2193 -3.40238 5.5689 27.2575 -7.25901 12.9017 -55.7303 15.7573 -111.3901 -2.34706 5.17253 -46.1475 16.3051 24.5652 0.0 31.1629 0.0 11.8545 -9.36994 3.95086 0.0 0.0 0.0 0.0 0.0 0.0 113.8654 3.1834 -8.8763 36.2223 25.774 -33.0004 0.0 138.566 0.0 6.94981 11.0154 34.2151 0.0 0.0 0.0 0.0 0.0 0.0 7.7562 -16.4905 2.08772 0.0 19.5704 0.0 8.26641 3.7659998 -0.192835 0.0 -33.5728 0.0 7.9527 -5.77251 -1.30042 0.0 5.13764 0.0 6.64741 10.204821 -8.6165 0.0 -26.719799 0.0 
  1.6002000427246095 3.9349398803710938 9.744819946289063 -149.498 80.9654 148.467 2.81619 -9.61045 -1.58757 12.7368 22.3657 -3.42653 5.65001 26.734 -7.41492 12.6863 -55.3452 15.6408 -111.3362 -2.26562 5.22081 -46.3449 16.2668 24.7778 0.0 30.3547 0.0 11.459 -9.30519 3.66798 0.0 0.0 0.0 0.0 0.0 0.0 113.7564 3.3391 -9.01801 36.1516 25.7824 -32.9687 0.0 138.52 0.0 6.7607 11.0041 34.0167 0.0 0.0 0.0 0.0 0.0 0.0 8.12378 -17.1608 1.90336 0.0 20.2385 0.0 8.09051 3.6893997 -0.53407 0.0 -33.760498 0.0 8.31784 -5.75933 -1.65888 0.0 4.84032 0.0 6.67517 10.19691 -8.61072 0.0 -26.5854 0.0 
  1.5557899475097656 3.9618701171875 9.736190185546874 -148.944 80.8568 148.433 2.92424 -9.26339 -1.57485 12.904 21.7389 -3.32235 5.71888 26.8189 -7.54889 12.4854 -55.2996 15.5182 -111.4676 -2.23572 5.50688 -46.3831 16.0769 24.7253 0.0 29.5399 0.0 11.1255 -9.24301 3.69746 0.0 0.0 0.0 0.0 0.0 0.0 113.8241 3.2959 -9.39471 35.8931 25.7463 -32.9291 0.0 138.505 0.0 6.45607 11.0015 33.8034 0.0 0.0 0.0 0.0 0.0 0.0 8.44035 -17.8517 1.64387 0.0 20.8706 0.0 7.94585 3.6303997 -0.773073 0.0 -33.9001 0.0 8.66262 -5.81445 -1.95566 0.0 4.58968 0.0 6.6866 10.134211 -8.67804 0.0 -26.4641 0.0 
  1.5113400268554686 3.9844699096679688 9.73010009765625 -148.101 80.8126 148.079 2.97751 -9.1928 -1.53911 13.1579 21.6955 -3.27409 5.82185 26.48 -7.73989 12.2264 -55.056 15.4223 -111.4782 -2.15203 5.7314 -46.5332 16.1068 24.5191 0.0 28.7773 0.0 10.9366 -9.30197 3.70605 0.0 0.0 0.0 0.0 0.0 0.0 113.7809 3.2542 -9.59929 35.6943 25.924 -32.7285 0.0 138.509 0.0 6.31105 11.1215 33.8203 0.0 0.0 0.0 0.0 0.0 0.0 8.73714 -18.3676 1.27106 0.0 21.3774 0.0 7.79552 3.6362 -0.91189 0.0 -33.981598 0.0 9.00508 -5.82162 -2.2812 0.0 4.42101 0.0 6.66795 10.1541195 -8.69179 0.0 -26.4951 0.0 
  1.4707200622558594 4.006549987792969 9.725250244140625 -147.643 80.7856 148.021 2.94239 -9.21039 -1.61469 13.4439 21.7893 -3.34699 5.76637 26.049 -7.71959 11.9657 -54.7018 15.4253 -111.4802 -2.20478 5.55621 -46.8019 15.8687 24.3405 0.0 28.1163 0.0 10.8286 -9.50003 3.2978 0.0 0.0 0.0 0.0 0.0 0.0 113.6585 3.44815 -9.48533 35.6171 26.0493 -32.6863 0.0 138.573 0.0 6.55524 11.0001 33.7826 0.0 0.0 0.0 0.0 0.0 0.0 8.94347 -18.8051 0.916682 0.0 21.741 0.0 7.71763 3.7324 -0.942384 0.0 -34.099 0.0 9.27355 -5.89545 -2.33711 0.0 4.35649 0.0 6.77216 10.1138 -8.84003 0.0 -26.4684 0.0 
  1.4317900085449218 4.024700012207031 9.721669921875 -147.492 80.8422 148.244 2.9035 -9.25637 -1.60078 13.558 21.8934 -3.33256 5.91685 25.6316 -7.88451 11.6805 -54.3052 15.4798 -111.4211 -2.24978 5.53921 -46.9799 15.8465 24.2994 0.0 27.4998 0.0 10.8007 -9.67967 2.82917 0.0 0.0 0.0 0.0 0.0 0.0 113.423996 3.55532 -9.38907 35.7414 26.1028 -32.5107 0.0 138.472 0.0 7.47333 11.4573 33.9096 0.0 0.0 0.0 0.0 0.0 0.0 9.05029 -19.0611 0.576917 0.0 21.8975 0.0 7.61719 3.8836002 -0.996149 0.0 -34.1974 0.0 9.44982 -5.91451 -2.04808 0.0 4.31626 0.0 6.98232 9.97791 -9.25313 0.0 -26.4045 0.0 
  1.396199951171875 4.039630126953125 9.718720092773438 -147.316 80.8852 148.406 3.03954 -9.21982 -1.47518 13.3835 21.6587 -3.19908 6.16354 25.6342 -8.08797 11.5894 -54.0361 15.4767 -111.3479 -2.13252 5.70324 -46.9957 15.6881 24.2181 0.0 27.0078 0.0 10.6291 -9.79224 2.52565 0.0 0.0 0.0 0.0 0.0 0.0 113.537796 3.4746 -9.55037 35.5938 26.0929 -32.4105 0.0 138.449 0.0 7.32595 11.4159 33.9401 0.0 0.0 0.0 0.0 0.0 0.0 9.15185 -19.2242 0.286466 0.0 21.9254 0.0 7.57409 4.0001 -1.00933 0.0 -34.1889 0.0 9.62915 -5.91917 -1.98967 0.0 4.24313 0.0 7.02262 9.93526 -9.52145 0.0 -26.422699 0.0 
  1.3633000183105468 4.0527801513671875 9.716820068359375 -147.016 80.9362 148.38 3.18758 -9.26379 -1.37893 13.2116 21.5638 -3.12742 6.30501 25.6266 -8.1837 11.4884 -53.649 15.416 -111.2518 -2.07565 5.6647 -47.031 15.4466 24.2917 0.0 26.6508 0.0 10.5233 -9.86447 2.48085 0.0 0.0 0.0 0.0 0.0 0.0 113.5511 3.44831 -9.56353 35.5594 26.1492 -32.5455 0.0 138.407 0.0 6.92247 11.1651 34.1076 0.0 0.0 0.0 0.0 0.0 0.0 9.28987 -19.2902 0.110095 0.0 21.8636 0.0 7.52613 4.1027 -1.09816 0.0 -34.2681 0.0 9.82479 -5.93703 -2.10834 0.0 4.24575 0.0 6.88331 9.93148 -9.6858 0.0 -26.410301 0.0 
  1.3340499877929688 4.062860107421875 9.715670166015625 -146.857 81.0092 148.492 3.14988 -9.36562 -1.50299 13.3019 21.5138 -3.23846 6.17433 25.7746 -8.02523 11.3788 -53.2815 15.2526 -111.2229 -2.27391 5.53641 -47.2144 15.2495 24.2434 0.0 26.2877 0.0 10.2624 -9.84711 2.5995 0.0 0.0 0.0 0.0 0.0 0.0 113.314804 3.68949 -9.54835 35.7053 26.1307 -32.6289 0.0 138.334 0.0 6.91777 11.1317 34.1944 0.0 0.0 0.0 0.0 0.0 0.0 9.40934 -19.2746 0.0688673 0.0 21.6932 0.0 7.44086 4.2155 -1.3442 0.0 -34.3438 0.0 9.95739 -5.95818 -2.50238 0.0 4.29879 0.0 6.72621 9.91994 -9.60581 0.0 -26.3682 0.0 
  1.305279998779297 4.066679992675781 9.714310302734376 -146.548 81.1701 148.498 3.26343 -9.48852 -1.41926 13.0481 21.4884 -3.18866 6.54117 26.1064 -8.33579 11.2954 -53.1731 15.2299 -111.0869 -2.19547 5.57134 -47.1876 15.1118 24.3336 0.0 26.0982 0.0 10.0764 -9.93232 2.68901 0.0 0.0 0.0 0.0 0.0 0.0 113.4155 3.58021 -9.47535 35.6322 26.1553 -32.7644 0.0 138.427 0.0 6.37457 10.8704 33.9496 0.0 0.0 0.0 0.0 0.0 0.0 9.4941 -19.0769 0.0227102 0.0 21.3665 0.0 7.28484 4.3634005 -1.67027 0.0 -34.3703 0.0 10.0673 -5.82015 -2.80174 0.0 4.28256 0.0 6.53265 9.87785 -9.65196 0.0 -26.3946 0.0 
  1.2807200622558594 4.0759799194335935 9.71364990234375 -146.376 81.2939 148.427 3.32741 -9.51664 -1.36557 12.9561 21.3631 -3.13076 6.52593 26.5076 -8.3165 11.2176 -53.0318 15.0112 -111.1318 -2.26614 5.54138 -47.1068 14.9677 24.4397 0.0 26.0302 0.0 9.92075 -9.98745 2.3751 0.0 0.0 0.0 0.0 0.0 0.0 113.3801 3.60582 -9.43085 35.5618 26.1936 -32.7234 0.0 138.466 0.0 6.47319 10.962 33.8882 0.0 0.0 0.0 0.0 0.0 0.0 9.62119 -18.8516 0.226924 0.0 20.9662 0.0 7.23334 4.5045004 -1.93939 0.0 -34.3957 0.0 10.1693 -5.85555 -2.57003 0.0 4.46 0.0 6.49045 9.79409 -9.96077 0.0 -26.4258 0.0 
  1.2569300079345702 4.078989868164062 9.712890014648437 -145.811 81.5088 148.084 3.37844 -9.56916 -1.35779 12.8374 21.3509 -3.1418 6.65745 26.9554 -8.38814 11.1209 -52.8358 14.8949 -111.0669 -2.26055 5.41661 -47.1404 14.7451 24.4327 0.0 26.0473 0.0 9.88717 -9.99099 2.33305 0.0 0.0 0.0 0.0 0.0 0.0 113.4337 3.54565 -9.43076 35.4141 26.2605 -32.7796 0.0 138.58 0.0 6.09663 10.6753 33.8222 0.0 0.0 0.0 0.0 0.0 0.0 9.69276 -18.4938 0.211746 0.0 20.5178 0.0 7.07196 4.6534004 -2.2204 0.0 -34.4001 0.0 10.2603 -5.72714 -2.5452 0.0 4.59705 0.0 6.41485 9.6869 -10.2259 0.0 -26.4286 0.0 
  1.2360399627685548 4.085280151367187 9.712139892578126 -145.32 81.6676 147.783 3.3738 -9.6134 -1.44106 12.8853 21.3012 -3.22029 6.64561 27.4721 -8.33242 10.9109 -52.631 14.7413 -111.100296 -2.37882 5.29803 -47.1618 14.6166 24.465 0.0 26.1234 0.0 9.97444 -9.99151 2.30426 0.0 0.0 0.0 0.0 0.0 0.0 113.3767 3.57748 -9.44873 35.2458 26.4023 -32.8613 0.0 138.574 0.0 5.83423 10.4733 33.9409 0.0 0.0 0.0 0.0 0.0 0.0 9.73895 -18.244 0.0622918 0.0 20.1577 0.0 6.93938 4.8126 -2.30617 0.0 -34.369 0.0 10.3479 -5.69479 -2.53769 0.0 4.76968 0.0 6.28521 9.604731 -10.4274 0.0 -26.4263 0.0 
  1.2159500122070312 4.091080017089844 9.71073974609375 -144.699 81.7839 147.37 3.47688 -9.6496 -1.40331 12.7953 21.1833 -3.19319 6.85068 28.0736 -8.50029 10.7916 -52.5671 14.5993 -111.0357 -2.37109 5.37182 -47.151 14.6533 24.5225 0.0 26.2834 0.0 10.1862 -9.99162 1.602 0.0 0.0 0.0 0.0 0.0 0.0 113.39 3.44936 -9.28899 35.2018 26.3485 -33.0861 0.0 138.528 0.0 5.53203 10.2599 34.0972 0.0 0.0 0.0 0.0 0.0 0.0 9.79489 -18.0687 -0.197413 0.0 19.8873 0.0 6.79514 4.9308996 -2.29308 0.0 -34.3266 0.0 10.4619 -5.68907 -2.76295 0.0 4.94671 0.0 6.20697 9.571381 -10.4185 0.0 -26.5528 0.0 
  1.197779998779297 4.0976998901367185 9.709240112304688 -144.071 81.8546 146.982 3.49743 -9.73862 -1.5088 12.8794 21.224 -3.31701 6.97286 28.4937 -8.58369 10.6086 -52.4914 14.5579 -111.007904 -2.58563 5.22206 -47.2201 14.7483 24.634 0.0 26.5394 0.0 10.2765 -10.0793 1.64577 0.0 0.0 0.0 0.0 0.0 0.0 113.1991 3.47713 -9.11809 35.3678 26.2865 -33.1295 0.0 138.376 0.0 5.98369 10.4583 34.3097 0.0 0.0 0.0 0.0 0.0 0.0 9.84014 -18.0106 -0.566825 0.0 19.7398 0.0 6.68452 5.0392103 -2.19545 0.0 -34.3192 0.0 10.5831 -5.69391 -3.02404 0.0 5.06648 0.0 6.07384 9.54841 -10.4278 0.0 -26.574799 0.0 
